<svg width="66" height="56" viewBox="0 0 66 56" fill="none" xmlns="http://www.w3.org/2000/svg">
<path fill-rule="evenodd" clip-rule="evenodd" d="M14.0823 5.40381C6.8938 5.40381 1.06689 11.915 1.06689 19.9477C1.06689 27.9798 6.8938 34.4916 14.0823 34.4916H15.5129L17.2061 38.6529L19.4062 34.4916H25.5359C32.7239 34.4916 38.5508 27.9798 38.5508 19.9477C38.5508 11.915 32.7239 5.40381 25.5359 5.40381H14.0823Z" fill="#DFDFDF"/>
<path d="M29.6496 14.5298H9.74082C9.22941 14.5298 8.81482 14.993 8.81482 15.5645C8.81482 16.136 9.22941 16.5993 9.74082 16.5993H29.6496C30.161 16.5993 30.5756 16.136 30.5756 15.5645C30.5756 14.993 30.161 14.5298 29.6496 14.5298Z" fill="#C3C2C2"/>
<path d="M29.6496 19.186H9.74082C9.22941 19.186 8.81482 19.6493 8.81482 20.2208C8.81482 20.7922 9.22941 21.2555 9.74082 21.2555H29.6496C30.161 21.2555 30.5756 20.7922 30.5756 20.2208C30.5756 19.6493 30.161 19.186 29.6496 19.186Z" fill="#C3C2C2"/>
<path d="M20.8527 23.8423H9.74082C9.22941 23.8423 8.81482 24.3056 8.81482 24.877C8.81482 25.4485 9.22941 25.9118 9.74082 25.9118H20.8527C21.3641 25.9118 21.7787 25.4485 21.7787 24.877C21.7787 24.3056 21.3641 23.8423 20.8527 23.8423Z" fill="#C3C2C2"/>
<path d="M7.59159 17.5798C11.5422 18.1891 15.1868 15.1044 15.732 10.6898C16.2773 6.27532 13.5167 2.20273 9.56613 1.59344C5.61554 0.984157 1.97095 4.0689 1.4257 8.48342C0.880441 12.8979 3.641 16.9705 7.59159 17.5798Z" fill="#FF7A02"/>
<path d="M8.72859 8.37094C8.6906 8.68082 8.43499 8.89731 8.15768 8.85426C7.88036 8.81181 7.68662 8.52557 7.7246 8.21568C7.76314 7.90641 8.01875 7.68992 8.29607 7.73237C8.57338 7.77542 8.76712 8.06105 8.72859 8.37094Z" fill="black"/>
<path d="M4.96393 7.7899C4.92594 8.09978 4.67033 8.31628 4.39301 8.27383C4.1157 8.23077 3.92197 7.94514 3.95996 7.63526C3.99849 7.32538 4.25408 7.10888 4.5314 7.15194C4.80872 7.19439 5.00246 7.48002 4.96393 7.7899Z" fill="black"/>
<path fill-rule="evenodd" clip-rule="evenodd" d="M7.81517 11.1612C7.70663 11.2473 7.55631 11.2188 7.47925 11.0981C7.16449 10.6033 6.67553 10.2497 6.09539 10.16C5.51525 10.0708 4.95897 10.263 4.53567 10.6439C4.43256 10.7373 4.28116 10.7191 4.19758 10.6033C4.11401 10.488 4.13028 10.3182 4.23394 10.2254C4.75546 9.75486 5.44416 9.51654 6.16106 9.62752C6.8785 9.73789 7.48359 10.1757 7.87161 10.7864C7.94868 10.9077 7.92317 11.0751 7.81517 11.1612Z" fill="black" stroke="black" stroke-width="0.5" stroke-linecap="round"/>
<path fill-rule="evenodd" clip-rule="evenodd" d="M8.16419 8.80088C8.41491 8.83969 8.64664 8.64383 8.68083 8.36366C8.71556 8.08289 8.54028 7.82455 8.28956 7.78574C8.03883 7.74693 7.8071 7.94279 7.77237 8.22357C7.73764 8.50374 7.91292 8.76207 8.16419 8.80088ZM8.15768 8.85426C8.43499 8.89731 8.6906 8.68082 8.72859 8.37094C8.76712 8.06105 8.57338 7.77542 8.29607 7.73237C8.01875 7.68992 7.76314 7.90641 7.7246 8.21568C7.68662 8.52557 7.88036 8.81181 8.15768 8.85426Z" fill="black"/>
<path fill-rule="evenodd" clip-rule="evenodd" d="M4.39954 8.22046C4.65026 8.25866 4.88199 8.0628 4.91618 7.78263C4.95091 7.50246 4.77562 7.24351 4.52489 7.2047C4.27363 7.1665 4.04244 7.36238 4.0077 7.64255C3.97297 7.92272 4.14827 8.18165 4.39954 8.22046ZM4.39301 8.27383C4.67033 8.31628 4.92594 8.09978 4.96393 7.7899C5.00246 7.48002 4.80872 7.19439 4.5314 7.15194C4.25408 7.10888 3.99849 7.32538 3.95996 7.63526C3.92197 7.94514 4.1157 8.23077 4.39301 8.27383Z" fill="black"/>
<path fill-rule="evenodd" clip-rule="evenodd" d="M48.9221 18.6035C56.9127 18.6035 63.3903 25.8418 63.3903 34.7708C63.3903 43.7004 56.9127 50.9387 48.9221 50.9387H47.3315L45.4499 55.5645L43.0035 50.9387H36.1894C28.1988 50.9387 21.7212 43.7004 21.7212 34.7708C21.7212 25.8418 28.1988 18.6035 36.1894 18.6035H48.9221Z" fill="#EFEFEF"/>
<path d="M52.5101 29.4678H32.6013C32.0899 29.4678 31.6753 29.931 31.6753 30.5025C31.6753 31.074 32.0899 31.5372 32.6013 31.5372H52.5101C53.0215 31.5372 53.4361 31.074 53.4361 30.5025C53.4361 29.931 53.0215 29.4678 52.5101 29.4678Z" fill="#D2D2D2"/>
<path d="M52.5101 34.1245H32.6013C32.0899 34.1245 31.6753 34.5878 31.6753 35.1592C31.6753 35.7307 32.0899 36.194 32.6013 36.194H52.5101C53.0215 36.194 53.4361 35.7307 53.4361 35.1592C53.4361 34.5878 53.0215 34.1245 52.5101 34.1245Z" fill="#D2D2D2"/>
<path d="M43.7132 38.7808H32.6013C32.0899 38.7808 31.6753 39.244 31.6753 39.8155C31.6753 40.387 32.0899 40.8502 32.6013 40.8502H43.7132C44.2246 40.8502 44.6392 40.387 44.6392 39.8155C44.6392 39.244 44.2246 38.7808 43.7132 38.7808Z" fill="#D2D2D2"/>
<path d="M53.0184 33.1124C58.6793 33.82 63.7817 29.2658 64.415 22.9401C65.0483 16.6145 60.9727 10.9129 55.3118 10.2052C49.6509 9.49751 44.5485 14.0518 43.9152 20.3774C43.2819 26.7031 47.3576 32.4047 53.0184 33.1124Z" fill="#FFD732"/>
<path fill-rule="evenodd" clip-rule="evenodd" d="M55.1941 22.2023C55.3455 22.075 55.5615 22.1095 55.6749 22.2793C56.1411 22.9725 56.8509 23.4576 57.6823 23.5613C58.5132 23.665 59.3017 23.3679 59.8927 22.8063C60.0376 22.6693 60.2547 22.6887 60.3773 22.8506C60.5005 23.0119 60.4832 23.2545 60.3383 23.3921C59.6083 24.0847 58.6331 24.4534 57.6058 24.3248C56.5779 24.1962 55.6999 23.5965 55.1252 22.7402C55.0112 22.5704 55.0421 22.3297 55.1941 22.2023Z" fill="black" stroke="black" stroke-width="0.5" stroke-linecap="round"/>
<path d="M61.4209 20.524C61.3764 20.9679 61.0182 21.2875 60.621 21.2377C60.2237 21.188 59.9377 20.7878 59.9822 20.3439C60.0267 19.9 60.3849 19.5804 60.7822 19.6301C61.1794 19.6798 61.4654 20.0801 61.4209 20.524Z" fill="black"/>
<path fill-rule="evenodd" clip-rule="evenodd" d="M60.6286 21.1613C60.9884 21.2062 61.3124 20.9169 61.3525 20.5149C61.3927 20.1134 61.1338 19.7514 60.7746 19.7065C60.4147 19.6616 60.0908 19.9509 60.0506 20.3523C60.0104 20.7544 60.2693 21.1164 60.6286 21.1613ZM60.621 21.2377C61.0182 21.2875 61.3764 20.9679 61.4209 20.524C61.4654 20.0801 61.1794 19.6798 60.7822 19.6301C60.3849 19.5804 60.0267 19.9 59.9822 20.3439C59.9377 20.7878 60.2237 21.188 60.621 21.2377Z" fill="black"/>
<path d="M56.0265 19.849C55.982 20.2929 55.6238 20.6125 55.2266 20.5628C54.8293 20.5137 54.5433 20.1134 54.5878 19.6695C54.6323 19.2256 54.9905 18.9061 55.3877 18.9558C55.785 19.0049 56.071 19.4051 56.0265 19.849Z" fill="black"/>
<path fill-rule="evenodd" clip-rule="evenodd" d="M55.2342 20.487C55.594 20.5319 55.918 20.2426 55.9581 19.8405C55.9983 19.4391 55.7394 19.0771 55.3802 19.0316C55.0204 18.9867 54.6964 19.276 54.6562 19.678C54.616 20.0795 54.8749 20.4415 55.2342 20.487ZM55.2266 20.5628C55.6238 20.6125 55.982 20.2929 56.0265 19.849C56.071 19.4051 55.785 19.0049 55.3877 18.9558C54.9905 18.9061 54.6323 19.2256 54.5878 19.6695C54.5433 20.1134 54.8293 20.5137 55.2266 20.5628Z" fill="black"/>
</svg>
